# xmcd
#
# Track frame offsets:
#	150
#	16196
#	30526
#	45510
#	65322
#	82836
#	98680
#	113727
#	134450
#	154728
#	167902
#	186078
#	202804
#	216380
#	226553
#	242891
#	257668
#	276714
#	293160
#	311749
#	334313
#
# Disc length: 4693 seconds
#
# Revision: 1
# Processed by: cddbd v1.5.2PL0 Copyright (c) Steve Scherf et al.
# Submitted via: audiograbber 1.83.01
#
DISCID=24125315
DTITLE=Various Artist - 100 Greatest Country Duets #3
DYEAR=2008
DGENRE=Country
TTITLE0=Morgan, Lorrie and Whitley, Keith - #52 Till A Tear Becomes A Rose
TTITLE1=Gill, Vince and Krauss, Alison - #51 High Lonesome Sound
TTITLE2=Jennings, Waylon and Nelson, Willie - #50 Luckenbach Texas
TTITLE3=Jackson, Alan and Strait, George - #49 Murder On Music Row
TTITLE4=Brooks and Dunn and McEntire, Reba - #48 If You See Him - If You See Her
TTITLE5=Brooks, Garth and Yearwood, Trisha - #47 Squeeze Me In
TTITLE6=Krauss, Alison and Taylor, James - #46 How's The World Treating You
TTITLE7=Green, Reverend Al and Lovett, Lyle - #45 Funny How Time Slips Away
TTITLE8=Hill, Faith and McGraw, Tim - #44 Just To Hear You Say That You Love Me
TTITLE9=Wynette, Tammy and Houston, David - #43 My Elusive Dreams
TTITLE10=Orbison, Roy and Harris, Emmylou - #42 That Lovin' Feelin' Again
TTITLE11=Cash, Rosanne and Cash, Johnny - #41 September When It Comes
TTITLE12=Jennings, Waylon and Colter, Jessi - #40 Storms Never Last
TTITLE13=Wakely, Jimmy and Whiting, Mararet - #39 Slippin' Around
TTITLE14=Williams, Don and Harris, Emmylou - #38 If I Need You
TTITLE15=Parton, Dolly and Gill, Vince - #37 I Will Always Love You
TTITLE16=Hill, Faith and McGraw, Tim - #36 Let's Make Love
TTITLE17=Nelson, Willie and Iglesias, Julio - #35 To All The Girls I've Loved Bef
TTITLE17=ore
TTITLE18=Loveless, Patty and Jones, George - #34 You Don't Seem To Miss Me
TTITLE19=Kid Rock and Crow, Sheryl - #33 Picture
TTITLE20=Gill, Vince and Loveless, Patty - #32 My Kind Of Woman, My Kind Of Man
EXTD=
EXTT0=
EXTT1=
EXTT2=
EXTT3=
EXTT4=
EXTT5=
EXTT6=
EXTT7=
EXTT8=
EXTT9=
EXTT10=
EXTT11=
EXTT12=
EXTT13=
EXTT14=
EXTT15=
EXTT16=
EXTT17=
EXTT18=
EXTT19=
EXTT20=
PLAYORDER=
